# xmcd
#
# Track frame offsets:
#	150
#	19275
#	30756
#	47697
#	59919
#	72597
#	90528
#	103697
#	121614
#	135613
#
# Disc length: 2024 seconds
#
# Revision: 0
# Processed by: cddbd v1.5.1PL0 Copyright (c) Steve Scherf et al.
# Submitted via: EasyCDDAExtractor 7.1.3.1
#
DISCID=8407e60a
DTITLE=Steve Davis - I'd Like To See You Try
DYEAR=2004
DGENRE=Country
TTITLE0=I'd Like To See You Try
TTITLE1=I Still Love The Night Life
TTITLE2=The Race
TTITLE3=A Girl Like That
TTITLE4=Loving You Comes That Easy To Me
TTITLE5=You Can't Break A Broken Heart
TTITLE6=I Hate Rap
TTITLE7=I Can See You With My Eyes Closed
TTITLE8=Love's Gonna Live Here
TTITLE9=Every Boy And Girl
EXTD=
EXTT0=
EXTT1=
EXTT2=
EXTT3=
EXTT4=
EXTT5=
EXTT6=
EXTT7=
EXTT8=
EXTT9=
PLAYORDER=
